# xmcd
#
# Track frame offsets:
#	216
#	16523
#	28490
#	40941
#	54224
#	71660
#	93932
#	124964
#	138521
#	149540
#	162226
#	177129
#	196531
#	210034
#	228377
#	243410
#	267344
#
# Disc length: 3896 seconds
#
# Revision: 0
# Processed by: cddbd v1.4PL0 Copyright (c) Steve Scherf et al.
# Submitted via: dBpowerAMP V4.0
#
DISCID=e30f3611
DTITLE=Assorted - The Number 1 Blues Album
DYEAR=2002
DGENRE=Blues
TTITLE0=Robert Cray - You're Gonna Need me
TTITLE1=Little Milton - Grits Ain't Groceries
TTITLE2=Albert King - Born Under a Bad Sign
TTITLE3=Muddy Waters - Mannish Boy
TTITLE4=Ike&Tina Turner - I've Been Loving You To Long
TTITLE5=Allman Brothers - One Way Out
TTITLE6=Eric Clapton_Dwayne Allman - Have You Ever Loved a Woman
TTITLE7=John Lee Hooker - One Bourbon, One Scotch, One Beer
TTITLE8=Elmore James - Stormy Monday
TTITLE9=Howlin Wolf - Back Door Man
TTITLE10=Bobby Blue Bland - Touch of the Blues
TTITLE11=Etta James - Baby What You Want Me To Do
TTITLE12=Buddy Guy - My Time After a While
TTITLE13=Otis Span - T'aint Nobodys Business if I Do
TTITLE14=James Brown - Kansas City
TTITLE15=Luther Allison - Easy Baby
TTITLE16=BB King - The Thrill is Gone
EXTD=
EXTT0=
EXTT1=
EXTT2=
EXTT3=
EXTT4=
EXTT5=
EXTT6=
EXTT7=
EXTT8=
EXTT9=
EXTT10=
EXTT11=
EXTT12=
EXTT13=
EXTT14=
EXTT15=
EXTT16=
PLAYORDER=
